<?xml version="1.0" encoding="utf-8"?>
<!-- Generator: Adobe Illustrator 29.6.1, SVG Export Plug-In . SVG Version: 9.03 Build 0)  -->
<svg version="1.0" id="Ebene_1" xmlns="http://www.w3.org/2000/svg" xmlns:xlink="http://www.w3.org/1999/xlink" x="0px" y="0px"
	 viewBox="0 0 128 128" style="enable-background:new 0 0 128 128;" xml:space="preserve">
<style type="text/css">
	.st0{fill:#FFFFFF;}
	.st1{fill:#00AF52;}
	.st2{fill:#006239;}
</style>
<ellipse class="st0" cx="64.37" cy="63.89" rx="62.86" ry="62.86"/>
<g>
	<g>
		<polygon class="st1" points="36.46,51.82 47.49,47.28 40.86,39.85 57.23,43.77 71.25,39.37 69.41,45.24 		"/>
		<polygon class="st2" points="66.32,52.42 61.75,59.73 53.1,52.62 37.06,52.45 72.04,47.92 84.17,51.66 		"/>
		<polygon class="st1" points="79.51,47.3 72.54,47.62 70.25,45.35 75.76,43.57 		"/>
	</g>
	<path class="st1" d="M26.68,39.92c7.62-2.25,13.71-4.18,25.86-7.86c0.45-0.14,0.93-0.2,1.35-0.34c2.31-0.76,4.54-1.41,6.68-1.93
		c0.16-0.04,0.33-0.02,0.48,0.04c1.52,0.67,2.67,1.23,3.44,1.66c1,0.57,2.16,1,3.14,1.48c7.12,3.42,12.8,6.13,17.05,8.13
		c0.72,0.34,1.55,0.83,2.34,1.18c3.29,1.47,8.49,3.93,15.59,7.37c0.89,0.43,0.87,0.72,1.14,1.57c0.05,0.14,0.08,0.3,0.09,0.46
		c0.21,2.22,0.31,4.14,0.31,5.77c0,0.15,0.08,0.28,0.21,0.35c2.02,1,4.6,2.31,7.71,3.9c1.34,0.68,1.2,1.41,1.19,2.94
		c-0.03,8.62-0.03,16.43,0,23.44c0,0.79-0.41,1.32-1.22,1.58c-0.74,0.23-1.79,0.57-3.14,1c-1.38,0.45-2.43,0.77-3.15,0.98
		c-6.56,1.91-12.79,3.81-18.68,5.7c-1.14,0.36-3.51,1.04-7.1,2.03c-0.88,0.24-3.62,1.09-8.23,2.55c-0.39,0.12-0.79,0.07-1.21-0.17
		c-2.59-1.45-6.19-3.47-10.77-6.05c-0.18-0.1-0.4-0.12-0.59-0.05c-1.55,0.57-3.09,1.05-4.62,1.44c-0.26,0.06-0.63,0.04-1.12-0.06
		c-0.05-0.01-0.1-0.03-0.14-0.05c-5.19-3.04-9.67-5.67-13.43-7.91c-6.84-4.07-14.83-8.77-23.97-14.1c-0.48-0.28-0.87-0.59-1.39-0.96
		c-0.06-0.04-0.12-0.1-0.17-0.16c-0.3-0.36-0.45-0.87-0.45-1.52c0-14.14-0.01-23.34-0.02-27.61c0-0.24,0.1-0.46,0.27-0.63l0.63-0.6
		c0.06-0.06,0.13-0.09,0.2-0.12c1.1-0.33,4.84-1.47,11.23-3.42c0.07-0.02,0.18-0.03,0.31-0.03C26.56,39.94,26.62,39.93,26.68,39.92
		 M54.19,64.26c0.03,0.02,0.07,0.02,0.11,0.01l44.47-13.49c0.13-0.04,0.14-0.21,0.02-0.27L60.61,32.22
		c-0.03-0.02-0.07-0.02-0.1-0.01L18.12,45.08c-0.13,0.04-0.14,0.21-0.03,0.27L54.19,64.26 M16.13,47.24l0,24.69
		c0,0.27,0.14,0.53,0.38,0.67l36.68,21.64c0.11,0.07,0.25-0.03,0.24-0.16c-0.13-1.03-0.2-1.83-0.2-2.71
		c-0.01-8.09-0.01-16.28-0.01-24.57c0-0.16-0.09-0.31-0.23-0.39c-2.02-1.11-4.69-2.53-8.01-4.27c-3.1-1.63-6.27-3.31-9.51-5.06
		c-1.54-0.83-2.93-1.56-5.77-3.02c-6.69-3.44-11.16-5.75-13.4-6.93C16.22,47.1,16.13,47.15,16.13,47.24 M96.64,54.06
		c0,0.03,0.02,0.05,0.04,0.06l4.99,2.39c0.12,0.06,0.25-0.04,0.24-0.16l-0.28-3.6c-0.03-0.31-0.36-0.49-0.63-0.34
		c-0.46,0.25-0.84,0.39-1.15,0.42c-0.09,0.01-0.18,0.03-0.26,0.07c-0.65,0.27-1.51,0.56-2.58,0.86
		C96.74,53.83,96.62,53.93,96.64,54.06 M79.95,59.19l15.51,7.43c0.06,0.03,0.13,0.03,0.19,0.01l12.47-3.66
		c0.16-0.05,0.21-0.24,0.1-0.36c-0.26-0.28-0.56-0.54-0.93-0.72c-3.47-1.66-6.64-3.34-9.96-4.87c-1.13-0.52-2.16-1.07-3.08-1.66
		c-0.55-0.35-1.04-0.46-1.48-0.33c-1.85,0.55-3.39,1.04-4.63,1.46c-2.66,0.91-5.43,1.53-8.18,2.44
		C79.84,58.98,79.84,59.14,79.95,59.19 M70.96,73.64c0.07,0.04,0.15,0.04,0.22,0.02l20.36-5.72c0.26-0.07,0.29-0.43,0.05-0.55
		l-15.1-7.23c-0.07-0.03-0.14-0.04-0.21-0.02l-18.76,5.69c-0.25,0.08-0.29,0.42-0.06,0.54L70.96,73.64 M110.82,64.86
		c0-0.06-0.06-0.11-0.12-0.09L72.18,76.09c-0.04,0.01-0.07,0.05-0.07,0.09V99.2c0,0.06,0.06,0.11,0.12,0.09l38.53-11.69
		c0.04-0.01,0.07-0.05,0.07-0.09V64.86 M69.61,98.47c0.08,0.04,0.16-0.01,0.16-0.1V75.74c0-0.04-0.02-0.08-0.06-0.1l-14.04-7.55
		c-0.08-0.04-0.16,0.01-0.16,0.1v22.63c0,0.04,0.02,0.08,0.06,0.1L69.61,98.47 M55.67,93.61c-0.19,0.36-0.27,0.64-0.24,0.84
		c0.02,0.09,0.1,0.16,0.2,0.16c0.41-0.01,0.79-0.12,1.15-0.32c0.09-0.05,0.09-0.18,0-0.23l-0.91-0.51
		C55.8,93.51,55.7,93.54,55.67,93.61L55.67,93.61z"/>
</g>
</svg>
