<?xml version="1.0" encoding="utf-8"?>
<!-- Generator: Adobe Illustrator 29.6.1, SVG Export Plug-In . SVG Version: 9.03 Build 0)  -->
<svg version="1.0" id="Ebene_1" xmlns="http://www.w3.org/2000/svg" xmlns:xlink="http://www.w3.org/1999/xlink" x="0px" y="0px"
	 viewBox="0 0 128 128" style="enable-background:new 0 0 128 128;" xml:space="preserve">
<style type="text/css">
	.st0{fill:#FFFFFF;}
	.st1{fill:#00AF52;}
</style>
<ellipse class="st0" cx="64.37" cy="63.89" rx="62.86" ry="62.86"/>
<g>
	<path class="st1" d="M30.62,84.53c-1.08-0.59-1.59-1.58-1.59-2.78c0-3.77-0.01-16.82-0.01-39.16c0-1.35,0.57-2.3,1.71-2.85
		c1.58-0.76,2.65-1.27,3.23-1.55c7.96-3.77,16.88-7.9,26.76-12.4c0.86-0.39,1.64-0.59,2.46-0.89c0.36-0.13,0.75-0.13,1.1,0
		c1.69,0.61,3.31,1.46,4.84,2.14c2.93,1.32,5.28,2.38,7.06,3.2c0.36,0.16,0.82,0.25,1.18,0.41c1.05,0.46,4.18,1.84,9.41,4.17
		c0.83,0.37,1.44,0.62,1.81,0.75c0.8,0.28,1.46,0.7,2.37,1.08c2.85,1.19,5.26,2.29,7.23,3.32c0.87,0.46,1.31,1.2,1.31,2.23
		c-0.02,21.55,0.01,34.19,0.07,37.9c0.02,0.93,0.02,1.69,0.01,2.28c-0.02,1.62-1.31,2.13-2.71,2.8
		c-3.06,1.46-13.27,6.28-30.63,14.43c-0.44,0.2-0.97,0.26-1.58,0.17c-0.35-0.05-0.85-0.23-1.5-0.54c-6.83-3.19-12.96-5.98-18.4-8.37
		c-4.47-1.97-7.45-3.32-8.95-4.04C34.28,86.11,32.19,85.39,30.62,84.53 M42.31,44.86c0.29-0.27,0.52-0.44,0.7-0.53
		c6.05-2.85,15.13-7.08,27.27-12.68c0.13-0.06,0.22-0.14,0.28-0.24c0.05-0.08,0.01-0.19-0.08-0.22l-6.41-2.88
		c-0.29-0.13-0.63-0.13-0.92,0L34.61,41.3c-0.16,0.08-0.16,0.31,0,0.38l7.23,3.25C42,45,42.18,44.97,42.31,44.86 M74.83,32.98
		c-0.04-0.02-0.09-0.02-0.14,0L46.28,46.4c-0.13,0.06-0.13,0.25,0,0.3l6.66,2.99c0.04,0.02,0.09,0.02,0.14,0l28.42-13.42
		c0.13-0.06,0.13-0.25,0-0.3L74.83,32.98 M65.01,55.21c0.03,0.02,0.08,0.02,0.11,0L93.8,41.68c0.11-0.05,0.1-0.2,0-0.25l-8-3.6
		c-0.03-0.02-0.08-0.02-0.11,0L57.01,51.37c-0.11,0.05-0.1,0.2,0,0.25L65.01,55.21 M54.86,54.25c-0.02-0.01-0.04,0-0.04,0.03
		c-0.02,3.05-0.03,5.9,0,8.55c0.01,1.01-0.05,1.66-0.18,1.97c-0.26,0.62-0.8,0.97-1.59,1.04c-0.48,0.04-1.03-0.09-1.64-0.41
		c-0.7-0.36-1.18-0.67-1.44-0.93c-1.87-1.89-3.1-3.11-3.68-3.66c-0.25-0.23-0.61-0.29-0.92-0.15l-1.9,0.9
		c-0.1,0.05-0.21,0.08-0.32,0.08c-1.31,0.05-2.12-0.66-2.44-2.14c0-0.02-0.01-0.05-0.01-0.07l0.09-11.19c0-0.29-0.16-0.54-0.42-0.66
		l-7.79-3.5c-0.1-0.05-0.22,0.03-0.22,0.14c-0.03,11.12-0.03,23.28-0.01,36.47c0,0.55,0.04,0.89,0.11,1.03
		c0.03,0.06,0.08,0.11,0.15,0.14l30.63,13.76c0.1,0.05,0.22-0.03,0.22-0.14V58.45c0-0.21-0.13-0.41-0.32-0.49L54.86,54.25
		 M96.26,44.19c0-0.07-0.08-0.12-0.14-0.09L66.7,57.99c-0.03,0.02-0.06,0.05-0.06,0.09v37.66c0,0.07,0.08,0.12,0.14,0.09
		l29.42-13.88c0.03-0.02,0.06-0.05,0.06-0.09V44.19 M43.99,58.43c0.8-0.59,1.59-0.95,2.38-1.07c0.11-0.02,0.21-0.01,0.31,0.03
		c0.63,0.2,1.2,0.58,1.71,1.12c1.18,1.25,2.22,2.24,3.14,2.97c0.08,0.07,0.2,0.01,0.2-0.1v-8.3c0-0.2-0.12-0.38-0.3-0.47l-7.28-3.27
		c-0.17-0.08-0.37,0.05-0.37,0.24v8.76C43.79,58.43,43.91,58.49,43.99,58.43L43.99,58.43z"/>
	<path class="st1" d="M74.21,80.34c0.13-0.21,0.11-0.49-0.05-0.68c-0.67-0.81-1.38-1.91-1.64-2.95c-0.91-3.73-0.2-7.04,2.12-9.93
		c1.07-1.32,2.72-2.69,4.95-4.1c2.41-1.52,4.79-2.88,7.14-4.1c0.25-0.13,0.82-0.33,1.73-0.62c1.17-0.37,2.05-0.08,2.64,0.87
		c0.05,0.08,0.08,0.16,0.11,0.25c0.85,2.83,0.3,6.41-0.38,10.13c-0.61,3.35-2.25,7.12-4.72,9.41c-2.27,2.11-5.65,3.69-8.84,3.43
		c-0.37-0.03-0.72,0.15-0.91,0.47c-0.41,0.7-1.02,2.6-2.2,2.4C71.57,84.5,73.5,81.5,74.21,80.34 M76.08,76.7
		c0.22-0.42,0.48-0.75,0.78-1c0.12-0.1,0.22-0.21,0.31-0.34c0.95-1.36,1.78-2.59,2.49-3.71c0.56-0.89,1.23-1.61,1.93-2.37
		c0.05-0.05,0.11-0.1,0.17-0.14c0.7-0.41,1.34-0.42,1.94-0.04c0.37,0.24,0.49,0.75,0.28,1.19c-0.52,1.06-0.92,1.78-1.2,2.17
		c-1.63,2.27-2.97,4.32-4.02,6.14c-0.08,0.14,0.02,0.31,0.18,0.31c0.81,0.02,1.81-0.5,3.07-1.02c0.08-0.03,0.15-0.08,0.23-0.13
		c1.89-1.34,3.28-3.02,4.16-5.03c0.56-1.27,1.08-3.08,1.55-5.42c0.35-1.73,0.54-3.6,0.57-5.61c0-0.11-0.11-0.18-0.2-0.13
		c-2.48,1.2-5.07,2.63-7.79,4.31c-1.23,0.76-2.41,1.87-3.54,3.35c-1.78,2.3-2.14,4.78-1.1,7.45C75.93,76.78,76.04,76.78,76.08,76.7
		L76.08,76.7z"/>
</g>
</svg>
